HIERARCHY
ROOT root
{
	OFFSET	0	13.1	24.9
	CHANNELS 6  Xposition Yposition Zposition Xrotation Yrotation Zrotation
	JOINT spine_1
	{
		OFFSET	0	9.99999	0
		CHANNELS 3  Xrotation Yrotation Zrotation
		JOINT spine_2
		{
			OFFSET	0	112	-10
			CHANNELS 3  Xrotation Yrotation Zrotation
			JOINT spine_3
			{
				OFFSET	0	206.5	19.3
				CHANNELS 3  Xrotation Yrotation Zrotation
				JOINT spine_4
				{
					OFFSET	0	110.4	14.6
					CHANNELS 3  Xrotation Yrotation Zrotation
					JOINT neck_1
					{
						OFFSET	0	71.8	-50.3
						CHANNELS 3  Xrotation Yrotation Zrotation
						JOINT neck_2
						{
							OFFSET	0	86.2	-25.8
							CHANNELS 3  Xrotation Yrotation Zrotation
							JOINT head_ee
							{
								OFFSET	0	179.8	-8.7
								CHANNELS 3  Xrotation Yrotation Zrotation
								End Site
								{
									OFFSET	1	0	0
								}
							}
						}
					}
					JOINT left_clavicle
					{
						OFFSET	-43.2	22.4	-70.8
						CHANNELS 3  Xrotation Yrotation Zrotation
						JOINT left_shoulder
						{
							OFFSET	-93.9	-5.79999	48.7
							CHANNELS 3  Xrotation Yrotation Zrotation
							JOINT left_elbow
							{
								OFFSET	-291.4	-30.8	15.2
								CHANNELS 3  Xrotation Yrotation Zrotation
								JOINT left_lowarm_twist
								{
									OFFSET	-110.7	-3.89999	13.6
									CHANNELS 3  Xrotation Yrotation Zrotation
									JOINT left_hand
									{
										OFFSET	-110.7	-3.89999	13.6
										CHANNELS 3  Xrotation Yrotation Zrotation
										JOINT left_ee
										{
											OFFSET	-80.8	-5.10001	12.1
											CHANNELS 3  Xrotation Yrotation Zrotation
											End Site
											{
												OFFSET	1	0	0
											}
										}
									}
								}
							}
						}
					}
					JOINT right_clavicle
					{
						OFFSET	43.2	22.4	-70.8
						CHANNELS 3  Xrotation Yrotation Zrotation
						JOINT right_shoulder
						{
							OFFSET	93.9	-5.79999	48.7
							CHANNELS 3  Xrotation Yrotation Zrotation
							JOINT right_elbow
							{
								OFFSET	291.4	-30.8	15.2
								CHANNELS 3  Xrotation Yrotation Zrotation
								JOINT right_lowarm_twist
								{
									OFFSET	110.7	-3.89999	13.6
									CHANNELS 3  Xrotation Yrotation Zrotation
									JOINT right_hand
									{
										OFFSET	110.7	-3.89999	13.6
										CHANNELS 3  Xrotation Yrotation Zrotation
										JOINT right_ee
										{
											OFFSET	80.8	-5.10001	12.1
											CHANNELS 3  Xrotation Yrotation Zrotation
											End Site
											{
												OFFSET	1	0	0
											}
										}
									}
								}
							}
						}
					}
				}
			}
		}
	}
	JOINT left_hip
	{
		OFFSET	-82.8	-127.5	0.300001
		CHANNELS 3  Xrotation Yrotation Zrotation
		JOINT left_knee
		{
			OFFSET	-28.2	-396.7	2.2
			CHANNELS 3  Xrotation Yrotation Zrotation
			JOINT left_ankle
			{
				OFFSET	-11.7	-411.3	35.4
				CHANNELS 3  Xrotation Yrotation Zrotation
				JOINT left_toes
				{
					OFFSET	0	-60	-88.6
					CHANNELS 3  Xrotation Yrotation Zrotation
					JOINT left_foot_ee
					{
						OFFSET	-22.5	-16.5	-42.2
						CHANNELS 3  Xrotation Yrotation Zrotation
						End Site
						{
							OFFSET	1	0	0
						}
					}
				}
			}
		}
	}
	JOINT right_hip
	{
		OFFSET	82.8	-127.5	0.300001
		CHANNELS 3  Xrotation Yrotation Zrotation
		JOINT right_knee
		{
			OFFSET	28.2	-396.7	2.2
			CHANNELS 3  Xrotation Yrotation Zrotation
			JOINT right_ankle
			{
				OFFSET	11.7	-411.3	35.4
				CHANNELS 3  Xrotation Yrotation Zrotation
				JOINT right_toes
				{
					OFFSET	0	-60	-88.6
					CHANNELS 3  Xrotation Yrotation Zrotation
					JOINT right_foot_ee
					{
						OFFSET	22.5	-16.5	-42.2
						CHANNELS 3  Xrotation Yrotation Zrotation
						End Site
						{
							OFFSET	1	0	0
						}
					}
				}
			}
		}
	}
}
MOTION
Frames: 15
Frame Time: 0.02
3574.42 741.953 -1474.73 -42.6122803625 87.556880034 42.916901513 2.66662 0.120668 -0.155342 2.66662 0.130308 -0.147348 2.66628 0.152768 -0.12391 2.66628 0.131282 -0.146482 -10.6521 7.92133 -0.660231 -10.7426 15.3892 1.43446 -0.0 0.0 -0.0 3.4812 -4.00966 6.46022 -14.8289 -14.3323 73.3503 0.32743 -9.2133 0.0263827 29.1763 0.0910769 -3.68594 8.3901 -23.8538 49.5781 -0.0 0.0 -0.0 2.8084 14.5583 -4.2285 -24.6247 30.121 -69.4211 1.38459 34.4438 -0.429201 0.999767 -0.0341514 0.123119 -0.764339 -24.6845 -5.44521 0.0 0.0 0.0 -7.6355 12.6795 6.48431 5.76546 -0.279981 -0.839822 -14.7549 24.7226 2.30034 39.874 -0.0 -0.0 -0.0 0.0 -0.0 1.20579 15.3814 -3.97528 -8.85804 -0.262113 -1.33282 13.6151 -4.37367 1.91293 2.16127 -0.0 -0.0 0.0 0.0 0.0 
3572.63079828 738.675 -1474.85189011 -35.5406556054 86.7068889168 35.8240972341 2.78673 -0.0195099 -0.127892 2.78674 -0.0113323 -0.128875 2.78676 0.00974676 -0.129004 2.78674 -0.0107494 -0.128925 -11.4952 8.22116 -1.14437 -11.6199 16.3075 1.16914 -0.0 0.0 -0.0 2.66734 -5.01387 4.75634 -14.4588 -17.3464 74.5456 0.35028 -9.84406 0.0301654 27.5295 0.136079 -3.4804 8.67207 -23.6168 52.5409 -0.0 0.0 -0.0 3.77084 14.0507 -6.30896 -26.4334 31.1185 -67.2128 1.28371 32.4514 -0.373592 0.0045844 -0.000161528 0.000563199 -0.993631 -24.8242 -4.20351 0.0 0.0 0.0 -7.68172 12.6577 6.51055 5.77701 -0.280626 -0.841474 -12.6735 22.8362 1.95458 40.1725 -0.0 -0.0 -0.0 0.0 -0.0 1.23786 14.9928 -4.09541 -8.64473 -0.258236 -1.30032 15.0238 -4.65865 2.09838 3.35148 -0.0 -0.0 0.0 0.0 0.0 
3570.42344776 738.908 -1475.24494677 -31.8986083391 86.4504269736 31.9987045191 2.72204 -0.0504607 -0.0546325 2.72204 -0.046882 -0.0577327 2.72208 -0.0368113 -0.0646214 2.72208 -0.0465551 -0.0579967 -11.3605 7.41659 -2.29626 -11.4563 15.5307 -0.187615 -0.0 0.0 -0.0 2.87497 -5.27716 5.15302 -15.4375 -18.2138 73.6262 0.429898 -12.0223 0.0452687 27.8446 0.127927 -3.51982 8.89351 -25.0805 53.0414 -0.0 0.0 -0.0 3.72558 14.5089 -6.17495 -29.1017 31.8199 -66.3409 1.44525 35.5981 -0.464015 1.18708 -0.0403105 0.14625 -0.903933 -25.5446 -5.01036 0.0 0.0 0.0 -7.72262 11.7953 6.05964 5.36764 -0.257953 -0.782798 -12.3686 22.6218 1.90517 39.3954 -0.0 -0.0 -0.0 0.0 -0.0 1.29366 16.3538 -4.17547 -8.9456 -0.26367 -1.34616 13.0816 -6.14085 1.8394 0.769591 -0.0 -0.0 0.0 0.0 0.0 
3569.14273842 741.683 -1476.09974824 -16.8096249395 84.3075849815 16.8963120443 2.67889 0.132978 -0.0228032 2.67888 0.13416 -0.0142952 2.67885 0.134686 0.00793511 2.67887 0.134249 -0.0134356 -12.4278 7.48799 -2.90949 -12.5543 16.0654 -0.604245 -0.0 0.0 -0.0 3.133 -4.78036 5.70906 -16.0022 -18.5037 72.2081 0.445693 -12.4504 0.0486165 28.5231 0.109636 -3.60456 8.65549 -25.094 50.7358 -0.0 0.0 -0.0 3.80797 13.9733 -6.39389 -29.7425 32.393 -65.9174 1.38147 34.3835 -0.427437 0.864909 -0.0296702 0.106478 -0.735324 -23.7874 -5.24458 0.0 0.0 0.0 -7.70065 11.2923 6.01576 5.62985 -0.272427 -0.820399 -13.4717 23.7497 2.08798 39.9122 -0.0 -0.0 -0.0 0.0 -0.0 1.36619 15.0777 -4.33362 -8.29944 -0.251703 -1.24773 12.6779 -7.04478 1.78484 1.54028 -0.0 -0.0 0.0 0.0 0.0 
3569.16741071 741.683 -1476.19150803 -14.3313756086 83.3454497042 14.4036995032 2.67889 0.132978 -0.0228032 2.67888 0.13416 -0.0142952 2.67885 0.134686 0.00793511 2.67887 0.134249 -0.0134356 -12.4278 7.48799 -2.90949 -12.5543 16.0654 -0.604245 -0.0 0.0 -0.0 3.133 -4.78036 5.70906 -16.0022 -18.5037 72.2081 0.445693 -12.4504 0.0486165 28.5231 0.109636 -3.60456 8.65549 -25.094 50.7358 -0.0 0.0 -0.0 3.80797 13.9733 -6.39389 -29.7425 32.393 -65.9174 1.38147 34.3835 -0.427437 0.864909 -0.0296702 0.106478 -0.735324 -23.7874 -5.24458 0.0 0.0 0.0 -7.70065 11.2923 6.01576 5.62985 -0.272427 -0.820399 -13.4717 23.7497 2.08798 39.9122 -0.0 -0.0 -0.0 0.0 -0.0 1.36619 15.0777 -4.33362 -8.29944 -0.251703 -1.24773 12.6779 -7.04478 1.78484 1.54028 -0.0 -0.0 0.0 0.0 0.0 
3569.19242179 741.683 -1476.27858841 -12.558375483 82.419304945 12.6169908798 2.67889 0.132978 -0.0228032 2.67888 0.13416 -0.0142952 2.67885 0.134686 0.00793511 2.67887 0.134249 -0.0134356 -12.4278 7.48799 -2.90949 -12.5543 16.0654 -0.604245 -0.0 0.0 -0.0 3.133 -4.78036 5.70906 -16.0022 -18.5037 72.2081 0.445693 -12.4504 0.0486165 28.5231 0.109636 -3.60456 8.65549 -25.094 50.7358 -0.0 0.0 -0.0 3.80797 13.9733 -6.39389 -29.7425 32.393 -65.9174 1.38147 34.3835 -0.427437 0.864909 -0.0296702 0.106478 -0.735324 -23.7874 -5.24458 0.0 0.0 0.0 -7.70065 11.2923 6.01576 5.62985 -0.272427 -0.820399 -13.4717 23.7497 2.08798 39.9122 -0.0 -0.0 -0.0 0.0 -0.0 1.36619 15.0777 -4.33362 -8.29944 -0.251703 -1.24773 12.6779 -7.04478 1.78484 1.54028 -0.0 -0.0 0.0 0.0 0.0 
3569.2279977 741.683 -1476.39397479 -10.7777989888 81.176440113 10.8181213197 2.67889 0.132978 -0.0228032 2.67888 0.13416 -0.0142952 2.67885 0.134686 0.00793511 2.67887 0.134249 -0.0134356 -12.4278 7.48799 -2.90949 -12.5543 16.0654 -0.604245 -0.0 0.0 -0.0 3.133 -4.78036 5.70906 -16.0022 -18.5037 72.2081 0.445693 -12.4504 0.0486165 28.5231 0.109636 -3.60456 8.65549 -25.094 50.7358 -0.0 0.0 -0.0 3.80797 13.9733 -6.39389 -29.7425 32.393 -65.9174 1.38147 34.3835 -0.427437 0.864909 -0.0296702 0.106478 -0.735324 -23.7874 -5.24458 0.0 0.0 0.0 -7.70065 11.2923 6.01576 5.62985 -0.272427 -0.820399 -13.4717 23.7497 2.08798 39.9122 -0.0 -0.0 -0.0 0.0 -0.0 1.36619 15.0777 -4.33362 -8.29944 -0.251703 -1.24773 12.6779 -7.04478 1.78484 1.54028 -0.0 -0.0 0.0 0.0 0.0 
3569.27003952 741.683 -1476.5198623 -9.32460658374 79.8029382096 9.34478578031 2.67889 0.132978 -0.0228032 2.67888 0.13416 -0.0142952 2.67885 0.134686 0.00793511 2.67887 0.134249 -0.0134356 -12.4278 7.48799 -2.90949 -12.5543 16.0654 -0.604245 -0.0 0.0 -0.0 3.133 -4.78036 5.70906 -16.0022 -18.5037 72.2081 0.445693 -12.4504 0.0486165 28.5231 0.109636 -3.60456 8.65549 -25.094 50.7358 -0.0 0.0 -0.0 3.80797 13.9733 -6.39389 -29.7425 32.393 -65.9174 1.38147 34.3835 -0.427437 0.864909 -0.0296702 0.106478 -0.735324 -23.7874 -5.24458 0.0 0.0 0.0 -7.70065 11.2923 6.01576 5.62985 -0.272427 -0.820399 -13.4717 23.7497 2.08798 39.9122 -0.0 -0.0 -0.0 0.0 -0.0 1.36619 15.0777 -4.33362 -8.29944 -0.251703 -1.24773 12.6779 -7.04478 1.78484 1.54028 -0.0 -0.0 0.0 0.0 0.0 
3569.33100766 741.683 -1476.68649097 -7.90338860348 77.9591289785 7.89656993231 2.67889 0.132978 -0.0228032 2.67888 0.13416 -0.0142952 2.67885 0.134686 0.00793511 2.67887 0.134249 -0.0134356 -12.4278 7.48799 -2.90949 -12.5543 16.0654 -0.604245 -0.0 0.0 -0.0 3.133 -4.78036 5.70906 -16.0022 -18.5037 72.2081 0.445693 -12.4504 0.0486165 28.5231 0.109636 -3.60456 8.65549 -25.094 50.7358 -0.0 0.0 -0.0 3.80797 13.9733 -6.39389 -29.7425 32.393 -65.9174 1.38147 34.3835 -0.427437 0.864909 -0.0296702 0.106478 -0.735324 -23.7874 -5.24458 0.0 0.0 0.0 -7.70065 11.2923 6.01576 5.62985 -0.272427 -0.820399 -13.4717 23.7497 2.08798 39.9122 -0.0 -0.0 -0.0 0.0 -0.0 1.36619 15.0777 -4.33362 -8.29944 -0.251703 -1.24773 12.6779 -7.04478 1.78484 1.54028 -0.0 -0.0 0.0 0.0 0.0 
3569.42830435 741.683 -1476.92286903 -6.48771414217 75.293556104 6.44183341921 2.67889 0.132978 -0.0228032 2.67888 0.13416 -0.0142952 2.67885 0.134686 0.00793511 2.67887 0.134249 -0.0134356 -12.4278 7.48799 -2.90949 -12.5543 16.0654 -0.604245 -0.0 0.0 -0.0 3.133 -4.78036 5.70906 -16.0022 -18.5037 72.2081 0.445693 -12.4504 0.0486165 28.5231 0.109636 -3.60456 8.65549 -25.094 50.7358 -0.0 0.0 -0.0 3.80797 13.9733 -6.39389 -29.7425 32.393 -65.9174 1.38147 34.3835 -0.427437 0.864909 -0.0296702 0.106478 -0.735324 -23.7874 -5.24458 0.0 0.0 0.0 -7.70065 11.2923 6.01576 5.62985 -0.272427 -0.820399 -13.4717 23.7497 2.08798 39.9122 -0.0 -0.0 -0.0 0.0 -0.0 1.36619 15.0777 -4.33362 -8.29944 -0.251703 -1.24773 12.6779 -7.04478 1.78484 1.54028 -0.0 -0.0 0.0 0.0 0.0 
3566.35517816 744.442 -1481.43913174 -5.52874215084 70.3231607216 5.22934474008 2.77125 0.259582 0.0164379 2.77121 0.25801 0.0329226 2.77137 0.249219 0.0744515 2.77146 0.257849 0.0341574 -13.1795 7.20922 -3.3152 -13.3152 15.7843 -0.969384 -0.0 0.0 -0.0 3.19252 -4.42861 5.85383 -16.7451 -19.0566 71.599 0.494991 -13.7775 0.0598023 28.7686 0.10277 -3.63517 8.61962 -25.3987 50.0652 -0.0 0.0 -0.0 3.9455 13.8391 -6.69572 -30.6326 32.9032 -65.6983 1.42054 35.1318 -0.449712 1.08262 -0.036885 0.133348 -0.635525 -23.1865 -5.57485 0.0 0.0 0.0 -7.71477 10.6428 5.85334 5.6034 -0.270959 -0.816609 -14.932 24.1914 2.32222 39.7951 -0.0 -0.0 -0.0 0.0 -0.0 1.27697 15.0003 -4.44174 -7.82682 -0.242247 -1.17582 12.0048 -7.73528 1.69421 1.0016 -0.0 -0.0 0.0 0.0 0.0 
3564.41314524 741.47 -1486.9346818 -4.21641676923 64.4198062927 3.63842303796 2.76388 0.281067 0.061452 2.76384 0.276587 0.0792126 2.76424 0.260004 0.123179 2.76432 0.276194 0.0805696 -13.6698 7.22715 -2.75087 -13.8226 15.4643 -0.356614 -0.0 0.0 -0.0 2.83789 -3.8319 5.18962 -17.9485 -21.2785 70.5858 0.676753 -18.5335 0.11042 28.8962 0.0991508 -3.65106 8.48577 -25.5083 48.7185 -0.0 0.0 -0.0 4.40355 15.8311 -7.50735 -32.0733 32.3033 -65.5206 1.4286 35.2844 -0.454357 2.51385 -0.0817646 0.310646 -0.300057 -21.3474 -6.80403 0.0 0.0 0.0 -7.56357 9.58143 6.15125 4.75548 -0.224835 -0.694761 -12.1152 24.609 1.88294 39.9978 -0.0 -0.0 -0.0 0.0 -0.0 0.77131 16.9714 -4.39782 -7.8585 -0.242899 -1.18064 10.6325 -7.71873 1.50798 3.25125 -0.0 -0.0 0.0 0.0 0.0 
3516.49521504 731.376 -1526.64683627 -3.65137722705 58.856750434 2.57312658312 3.48357 0.286652 -0.0829303 3.48353 0.291348 -0.0645217 3.48322 0.297738 -0.0199718 3.48334 0.290847 -0.0667436 -15.3498 14.4851 -0.786484 -16.1455 28.1831 4.43312 -0.0 0.0 -0.0 -0.249205 6.39612 0.310447 -19.6148 -25.9298 71.2942 0.716343 -19.5375 0.123333 25.3542 0.186431 -3.2071 5.237 -28.0818 21.9104 -0.0 0.0 -0.0 9.10227 27.1724 -16.7366 -30.4165 23.7467 -66.6955 0.929838 24.7311 -0.203856 6.83742 -0.190241 0.852161 -0.201569 -26.0786 -9.17376 0.0 0.0 0.0 6.14531 19.7271 -2.03388 -29.5479 0.0611171 4.48416 22.8575 14.5298 -3.10624 35.0448 -0.0 -0.0 -0.0 0.0 -0.0 -0.341944 24.4612 -5.90657 -6.26148 -0.206698 -0.938247 19.2151 -10.1323 2.63639 11.3157 -0.0 -0.0 0.0 0.0 0.0 
3505.51616443 729.227 -1534.34295114 2.32430797574 54.7473916133 -2.87686385927 2.52328 0.625119 0.0719699 2.52307 0.619272 0.111603 2.52433 0.591961 0.213394 2.5248 0.618233 0.117224 -15.9256 13.8007 -1.60507 -16.7192 27.3633 3.55566 -0.0 0.0 -0.0 -0.48936 6.57319 -0.100127 -19.4378 -26.75 72.2208 0.646185 -17.75 0.100902 27.3357 0.140988 -3.45612 4.47855 -28.3789 16.6869 -0.0 0.0 -0.0 9.5745 28.1056 -17.6791 -27.3976 22.263 -66.5406 0.845131 22.7166 -0.169771 5.27916 -0.155861 0.65608 -0.20975 -27.5506 -9.6693 0.0 0.0 0.0 9.07655 23.5818 -5.58373 -33.5373 -0.107595 5.07298 18.4032 11.8422 -2.53893 39.4569 -0.0 -0.0 -0.0 0.0 -0.0 -0.424664 28.1593 -6.3746 -14.9322 -0.32157 -2.26249 21.738 -8.33148 2.94464 17.5549 -0.0 -0.0 0.0 0.0 0.0 
3496.7851498 726.282 -1542.0439104 3.83716133588 53.347020833 -4.05702534167 2.14569 0.50941 0.159655 2.14557 0.498219 0.191748 2.14727 0.457428 0.275225 2.14751 0.495154 0.199528 -14.5567 14.659 -2.33148 -15.3317 29.3918 2.83901 -0.0 0.0 -0.0 -0.832782 7.13366 -0.642647 -22.3812 -28.7482 71.3148 0.696633 -19.0392 0.116822 27.0839 0.14724 -3.42457 4.3749 -28.2703 16.0732 -0.0 0.0 -0.0 10.12 28.2825 -18.8733 -23.5371 21.3908 -66.0211 0.79586 21.5165 -0.15122 6.71746 -0.187783 0.837033 -0.0232866 -28.1148 -10.9065 0.0 0.0 0.0 13.8869 23.5991 -9.56648 -36.3607 -0.251616 5.48207 7.11632 6.40164 -1.02162 39.3637 -0.0 -0.0 -0.0 0.0 -0.0 -0.267062 33.1335 -6.80702 -19.443 -0.30185 -2.95413 24.1124 -6.07773 3.2274 23.6956 -0.0 -0.0 0.0 0.0 0.0 
